# xmcd
#
# Track frame offsets:
#	182
#	12612
#	30157
#	45982
#	58625
#	73277
#	85277
#	100527
#	114130
#	130905
#	143890
#	155177
#
# Disc length: 2341
#
# Revision: 1
# Processed by: cddbd v1.5.1PL0 Copyright (c) Steve Scherf et al.
# Submitted via: ExactAudioCopy v0.90b4
# Normalized: r0:DSETVAR1
#
DISCID=9a09230c
DTITLE=Various Artist - Christmas In Nashville
DYEAR=1999
DGENRE=Christmas
TTITLE0=Kenny Rogers - I'll Be Home For Christmas
TTITLE1=Kenny Rogers - Silver Bells
TTITLE2=Kenny Rogers - Have Your Self A Merry Little Christmas
TTITLE3=Randy Travis - God Rest Ye Merry Gentlemen
TTITLE4=Randy Travis - Old Time Christmas
TTITLE5=Randy Travis - Pretty Paper
TTITLE6=Crystal Gayle - O Holy Night
TTITLE7=Crystal Gayle - Silent Night
TTITLE8=Crystal Gayle - Little Drummer Boy
TTITLE9=Travis Tritt - Winter Wonderland
TTITLE10=Travis Tritt - Santa Looked A Lot Like Daddy
TTITLE11=Travis Tritt - Christmas Just Ain't Christmas Without You
EXTD=
EXTT0=
EXTT1=
EXTT2=
EXTT3=
EXTT4=
EXTT5=
EXTT6=
EXTT7=
EXTT8=
EXTT9=
EXTT10=
EXTT11=
PLAYORDER=
